<svg xmlns="http://www.w3.org/2000/svg" viewBox="0 0 32 32"><path d="M7.97 15H3.73V12.14H7.81Q8.96 12.14 9.78 11.85Q10.6 11.56 11.02 10.84Q11.45 10.11 11.45 8.82Q11.45 7.53 11.01 6.8Q10.58 6.08 9.74 5.78Q8.9 5.49 7.68 5.49H3.67V2.63H7.91Q10.31 2.63 12.04 3.37Q13.78 4.12 14.73 5.5Q15.68 6.89 15.68 8.82Q15.68 10.75 14.74 12.14Q13.79 13.52 12.07 14.26Q10.34 15 7.97 15ZM6.21 2.63V15H2V2.63ZM23.71 15.15Q21.69 15.15 20.19 14.67Q18.69 14.19 17.85 13.2Q17.02 12.2 17.01 10.65H21.01Q21.05 11.21 21.37 11.6Q21.68 12 22.26 12.19Q22.84 12.39 23.65 12.39Q24.33 12.39 24.79 12.26Q25.24 12.13 25.48 11.89Q25.71 11.65 25.71 11.35Q25.71 11.07 25.49 10.85Q25.26 10.64 24.75 10.47Q24.24 10.29 23.38 10.15L21.82 9.89Q19.77 9.54 18.59 8.7Q17.41 7.85 17.41 6.4Q17.41 5.22 18.21 4.34Q19.01 3.45 20.42 2.96Q21.83 2.47 23.67 2.47Q25.56 2.47 26.92 2.97Q28.29 3.47 29.04 4.38Q29.78 5.29 29.79 6.5H25.75Q25.7 5.89 25.2 5.56Q24.69 5.22 23.67 5.22Q23.03 5.22 22.61 5.34Q22.19 5.46 22 5.68Q21.8 5.89 21.8 6.17Q21.8 6.46 22.01 6.68Q22.22 6.9 22.69 7.06Q23.15 7.22 23.88 7.35L25.15 7.56Q26.43 7.78 27.35 8.14Q28.27 8.49 28.86 8.97Q29.45 9.45 29.72 10.04Q30 10.64 30 11.35Q30 12.57 29.25 13.42Q28.49 14.27 27.09 14.71Q25.68 15.15 23.71 15.15Z"/><path d="M8.14 18.81V29H5.53V20.44H5.43L2 22.15V20.41L5.23 18.81ZM16.27 29.14Q14.49 29.14 13.23 28.52Q11.97 27.9 11.3 26.74Q10.63 25.57 10.63 23.91Q10.63 22.26 11.3 21.09Q11.98 19.92 13.24 19.3Q14.5 18.68 16.27 18.68Q18.05 18.68 19.31 19.3Q20.58 19.92 21.25 21.09Q21.92 22.26 21.92 23.91Q21.92 25.57 21.25 26.73Q20.59 27.9 19.33 28.52Q18.07 29.14 16.27 29.14ZM16.27 27.6Q17.23 27.6 17.9 27.17Q18.57 26.74 18.92 25.91Q19.27 25.09 19.27 23.91Q19.27 22.73 18.92 21.9Q18.57 21.07 17.9 20.64Q17.23 20.2 16.27 20.2Q15.32 20.2 14.65 20.64Q13.98 21.08 13.63 21.91Q13.28 22.73 13.28 23.91Q13.28 25.09 13.63 25.91Q13.97 26.74 14.64 27.17Q15.31 27.6 16.27 27.6ZM30 18.81V29H27.39V20.44H27.29L23.86 22.15V20.41L27.09 18.81Z"/><style>path{fill:#000}@media (prefers-color-scheme:dark){path{fill:#fff}}</style></svg>
